<?xml version="1.0" encoding="utf-8"?>
<!-- Generator: Adobe Illustrator 16.0.0, SVG Export Plug-In . SVG Version: 6.00 Build 0)  -->
<!DOCTYPE svg PUBLIC "-//W3C//DTD SVG 1.1//EN" "http://www.w3.org/Graphics/SVG/1.1/DTD/svg11.dtd">
<svg version="1.1" id="Layer_1" xmlns="http://www.w3.org/2000/svg" xmlns:xlink="http://www.w3.org/1999/xlink" x="0px" y="0px"
	 width="546px" height="125.667px" viewBox="0 0 546 125.667" enable-background="new 0 0 546 125.667" xml:space="preserve">
<polygon fill="#454545" points="43.5,102.166 11.667,102.166 35.5,32.667 55.405,62.667 50.834,68.5 37.167,49.833 21.334,95.166 
	43.5,95.166 "/>
<polygon fill="#454545" points="72.5,102.166 105.07,102.167 81.237,32.666 40,95.333 43.5,102.166 79.5,49 95.402,95.167 
	77,95.167 65.5,78 61.333,85 "/>
<g>
	<polygon fill="#465C66" points="116.438,93.828 109.715,100.523 85.078,28.963 91.959,22.309 	"/>
	<polygon fill="#465C66" points="142.093,69.012 112.943,97.33 109.402,88.791 135.324,63.556 	"/>
	<g>
		<path fill="#465C66" d="M115.289,41.297c-1.568,1.519-7.156,6.921-7.156,6.921l3.018,8.256l8.953-8.658
			c4.347-4.204,11.277-4.086,15.479,0.259c4.202,4.344,4.088,11.277-0.259,15.481l0.059,0.063l-10.738,10.383
			c6.068,1.299,12.652-0.352,17.448-4.989c7.652-7.401,7.856-19.605,0.456-27.258C135.146,34.1,122.943,33.896,115.289,41.297z"/>
	</g>
	<g>
		<path fill="#465C66" d="M97.627,20.036l2.997,8.567c3.474-1.056,7.399-0.183,10.099,2.607c3.838,3.969,3.731,10.295-0.236,14.134
			l0.051,0.053l-2.553,2.469c0,0,11.604,0.816,12.535-1.001c3.625-7.065,2.561-15.943-3.27-21.969
			C112.012,19.477,104.343,17.854,97.627,20.036z"/>
	</g>
</g>
<g>
	<path fill="#444444" d="M176.814,35.552l16.472,28.469l16.409-28.469h5.999v50.781h-6.57V49.644l-15.837,27.422l-15.901-27.422
		v36.689h-6.57V35.552H176.814z"/>
	<path fill="#444444" d="M242.925,51.009c4.993,0,9.251,1.767,12.775,5.3c3.522,3.534,5.284,7.797,5.284,12.79
		c0,4.994-1.762,9.258-5.284,12.791c-3.523,3.534-7.782,5.301-12.775,5.301c-4.973,0-9.226-1.767-12.759-5.301
		c-3.534-3.533-5.3-7.797-5.3-12.791c0-4.993,1.767-9.256,5.3-12.79C233.7,52.776,237.953,51.009,242.925,51.009z M234.911,61.101
		c-2.211,2.223-3.316,4.889-3.316,7.998c0,3.132,1.105,5.798,3.316,7.998c2.211,2.201,4.882,3.301,8.014,3.301
		c3.131,0,5.803-1.1,8.014-3.301c2.21-2.2,3.316-4.866,3.316-7.998c0-3.109-1.106-5.775-3.316-7.998
		c-2.211-2.221-4.883-3.332-8.014-3.332C239.793,57.769,237.122,58.88,234.911,61.101z"/>
	<path fill="#444444" d="M284.756,51.009c4.994,0,9.252,1.767,12.775,5.3c3.522,3.534,5.284,7.797,5.284,12.79
		c0,4.994-1.762,9.258-5.284,12.791c-3.523,3.534-7.781,5.301-12.775,5.301c-4.972,0-9.225-1.767-12.758-5.301
		c-3.534-3.533-5.301-7.797-5.301-12.791c0-4.993,1.767-9.256,5.301-12.79C275.531,52.776,279.784,51.009,284.756,51.009z
		 M276.742,61.101c-2.211,2.223-3.316,4.889-3.316,7.998c0,3.132,1.105,5.798,3.316,7.998c2.211,2.201,4.883,3.301,8.014,3.301
		c3.132,0,5.803-1.1,8.015-3.301c2.211-2.2,3.316-4.866,3.316-7.998c0-3.109-1.105-5.775-3.316-7.998
		c-2.212-2.221-4.883-3.332-8.015-3.332C281.625,57.769,278.953,58.88,276.742,61.101z"/>
	<path fill="#444444" d="M317.002,82.271v4.063h-6.569V35.552h6.569v20.376c3.174-3.279,6.866-4.919,11.077-4.919
		c4.993,0,9.252,1.767,12.774,5.3c3.523,3.534,5.285,7.797,5.285,12.79c0,4.994-1.762,9.258-5.285,12.791
		c-3.522,3.534-7.781,5.301-12.774,5.301C323.868,87.191,320.176,85.551,317.002,82.271z M317.002,66.56v5.11
		c0.402,1.989,1.418,3.798,3.047,5.427c2.223,2.201,4.898,3.301,8.03,3.301c3.131,0,5.803-1.1,8.014-3.301
		c2.211-2.2,3.317-4.866,3.317-7.998c0-3.109-1.106-5.775-3.317-7.998c-2.211-2.221-4.883-3.332-8.014-3.332
		c-3.132,0-5.808,1.111-8.03,3.332C318.42,62.731,317.404,64.55,317.002,66.56z"/>
	<path fill="#444444" d="M368.387,86.778c-4.126,0-7.448-1.259-9.966-3.776c-2.519-2.519-3.809-5.671-3.872-9.459V53.675h6.602
		v19.613c0,1.884,0.688,3.503,2.063,4.856c1.376,1.354,3.09,2.031,5.143,2.031c1.883,0,3.517-0.672,4.903-2.016
		c1.386-1.343,2.079-2.968,2.079-4.872V53.675h6.569v19.867c-0.063,3.788-1.344,6.94-3.841,9.459
		C375.549,85.519,372.322,86.778,368.387,86.778z"/>
	<path fill="#444444" d="M419.771,55.928V35.552h6.602v50.781h-6.602v-4.063c-3.174,3.28-6.867,4.92-11.077,4.92
		c-4.994,0-9.252-1.767-12.774-5.301c-3.523-3.533-5.285-7.797-5.285-12.791c0-4.993,1.762-9.256,5.285-12.79
		c3.522-3.533,7.78-5.3,12.774-5.3C412.904,51.009,416.598,52.649,419.771,55.928z M419.771,71.543v-4.856
		c-0.381-2.052-1.408-3.914-3.079-5.586c-2.201-2.221-4.867-3.332-7.998-3.332c-3.132,0-5.803,1.111-8.014,3.332
		c-2.212,2.223-3.317,4.889-3.317,7.998c0,3.132,1.105,5.798,3.317,7.998c2.211,2.201,4.882,3.301,8.014,3.301
		c3.131,0,5.797-1.1,7.998-3.301C418.363,75.426,419.391,73.575,419.771,71.543z"/>
	<path fill="#444444" d="M464.236,55.928V35.552h6.602v50.781h-6.602v-4.063c-3.174,3.28-6.867,4.92-11.077,4.92
		c-4.994,0-9.252-1.767-12.774-5.301c-3.523-3.533-5.285-7.797-5.285-12.791c0-4.993,1.762-9.256,5.285-12.79
		c3.522-3.533,7.78-5.3,12.774-5.3C457.369,51.009,461.063,52.649,464.236,55.928z M464.236,71.543v-4.856
		c-0.381-2.052-1.408-3.914-3.079-5.586c-2.201-2.221-4.867-3.332-7.998-3.332c-3.132,0-5.803,1.111-8.014,3.332
		c-2.212,2.223-3.317,4.889-3.317,7.998c0,3.132,1.105,5.798,3.317,7.998c2.211,2.201,4.882,3.301,8.014,3.301
		c3.131,0,5.797-1.1,7.998-3.301C462.828,75.426,463.855,73.575,464.236,71.543z"/>
	<path fill="#444444" d="M488.389,97.315h-6.95l8.696-18.249l-12.156-25.391h7.396l8.284,17.868l8.283-17.868h7.363L488.389,97.315z
		"/>
</g>
</svg>
