<?xml version="1.0" encoding="utf-8"?>
<!-- Generator: Adobe Illustrator 16.0.0, SVG Export Plug-In . SVG Version: 6.00 Build 0)  -->
<!DOCTYPE svg PUBLIC "-//W3C//DTD SVG 1.1//EN" "http://www.w3.org/Graphics/SVG/1.1/DTD/svg11.dtd">
<svg version="1.1" id="Layer_1" xmlns="http://www.w3.org/2000/svg" xmlns:xlink="http://www.w3.org/1999/xlink" x="0px" y="0px"
	 width="546px" height="125.667px" viewBox="0 0 546 125.667" enable-background="new 0 0 546 125.667" xml:space="preserve">
<g>
	<path fill="#444444" d="M184.814,35.552l16.472,28.469l16.409-28.469h5.999v50.782h-6.57V49.644l-15.837,27.422l-15.901-27.422
		v36.689h-6.57V35.552H184.814z"/>
	<path fill="#444444" d="M250.925,51.009c4.993,0,9.251,1.767,12.775,5.3c3.522,3.534,5.284,7.797,5.284,12.79
		c0,4.994-1.762,9.258-5.284,12.791c-3.523,3.533-7.782,5.301-12.775,5.301c-4.973,0-9.226-1.768-12.759-5.301
		c-3.534-3.533-5.3-7.797-5.3-12.791c0-4.993,1.767-9.256,5.3-12.79C241.7,52.776,245.953,51.009,250.925,51.009z M242.911,61.101
		c-2.211,2.223-3.316,4.889-3.316,7.998c0,3.132,1.105,5.798,3.316,7.998c2.211,2.201,4.882,3.301,8.014,3.301
		c3.131,0,5.803-1.1,8.014-3.301c2.21-2.2,3.316-4.866,3.316-7.998c0-3.109-1.106-5.775-3.316-7.998
		c-2.211-2.221-4.883-3.332-8.014-3.332C247.793,57.769,245.122,58.88,242.911,61.101z"/>
	<path fill="#444444" d="M292.756,51.009c4.994,0,9.252,1.767,12.775,5.3c3.521,3.534,5.284,7.797,5.284,12.79
		c0,4.994-1.763,9.258-5.284,12.791c-3.523,3.533-7.781,5.301-12.775,5.301c-4.972,0-9.225-1.768-12.758-5.301
		c-3.534-3.533-5.301-7.797-5.301-12.791c0-4.993,1.767-9.256,5.301-12.79C283.531,52.776,287.784,51.009,292.756,51.009z
		 M284.742,61.101c-2.211,2.223-3.316,4.889-3.316,7.998c0,3.132,1.105,5.798,3.316,7.998c2.211,2.201,4.883,3.301,8.014,3.301
		c3.133,0,5.803-1.1,8.016-3.301c2.211-2.2,3.315-4.866,3.315-7.998c0-3.109-1.104-5.775-3.315-7.998
		c-2.213-2.221-4.883-3.332-8.016-3.332C289.625,57.769,286.953,58.88,284.742,61.101z"/>
	<path fill="#444444" d="M325.002,82.271v4.063h-6.569V35.552h6.569v20.376c3.174-3.279,6.866-4.919,11.077-4.919
		c4.993,0,9.252,1.767,12.773,5.3c3.523,3.534,5.285,7.797,5.285,12.79c0,4.994-1.762,9.258-5.285,12.791
		c-3.521,3.533-7.78,5.301-12.773,5.301C331.868,87.191,328.176,85.55,325.002,82.271z M325.002,66.56v5.109
		c0.402,1.99,1.418,3.799,3.047,5.428c2.224,2.201,4.898,3.301,8.03,3.301c3.131,0,5.803-1.1,8.014-3.301
		c2.211-2.2,3.317-4.866,3.317-7.998c0-3.109-1.106-5.775-3.317-7.998c-2.211-2.221-4.883-3.332-8.014-3.332
		c-3.132,0-5.808,1.111-8.03,3.332C326.42,62.731,325.404,64.55,325.002,66.56z"/>
	<path fill="#444444" d="M376.387,86.778c-4.126,0-7.447-1.259-9.966-3.776c-2.519-2.519-3.809-5.67-3.872-9.459V53.675h6.603
		v19.614c0,1.883,0.688,3.502,2.063,4.855c1.376,1.354,3.09,2.031,5.144,2.031c1.883,0,3.517-0.672,4.902-2.016
		s2.079-2.969,2.079-4.873V53.675h6.569v19.868c-0.063,3.787-1.344,6.939-3.841,9.459C383.549,85.519,380.322,86.778,376.387,86.778
		z"/>
	<path fill="#444444" d="M427.771,55.928V35.552h6.602v50.782h-6.602V82.27c-3.175,3.28-6.867,4.92-11.077,4.92
		c-4.994,0-9.252-1.767-12.774-5.301c-3.522-3.533-5.285-7.798-5.285-12.791s1.763-9.256,5.285-12.79
		c3.522-3.533,7.78-5.3,12.774-5.3C420.904,51.009,424.598,52.649,427.771,55.928z M427.771,71.542v-4.855
		c-0.382-2.053-1.408-3.914-3.079-5.586c-2.201-2.221-4.867-3.332-7.998-3.332c-3.132,0-5.804,1.111-8.015,3.332
		c-2.212,2.223-3.316,4.889-3.316,7.998c0,3.132,1.104,5.798,3.316,7.998c2.211,2.201,4.882,3.301,8.015,3.301
		c3.131,0,5.797-1.1,7.998-3.301C426.363,75.425,427.391,73.576,427.771,71.542z"/>
	<path fill="#444444" d="M472.236,55.928V35.552h6.602v50.782h-6.602V82.27c-3.175,3.28-6.867,4.92-11.077,4.92
		c-4.994,0-9.252-1.767-12.774-5.301c-3.522-3.533-5.285-7.798-5.285-12.791s1.763-9.256,5.285-12.79
		c3.522-3.533,7.78-5.3,12.774-5.3C465.369,51.009,469.063,52.649,472.236,55.928z M472.236,71.542v-4.855
		c-0.381-2.053-1.408-3.914-3.079-5.586c-2.201-2.221-4.867-3.332-7.998-3.332c-3.132,0-5.803,1.111-8.015,3.332
		c-2.212,2.223-3.316,4.889-3.316,7.998c0,3.132,1.104,5.798,3.316,7.998c2.212,2.201,4.883,3.301,8.015,3.301
		c3.131,0,5.797-1.1,7.998-3.301C470.828,75.425,471.855,73.576,472.236,71.542z"/>
	<path fill="#444444" d="M488.389,97.315h-6.949l16.695-18.249l-12.156-25.391h7.396l8.284,17.868l8.283-17.868h7.362
		L488.389,97.315z"/>
</g>
<g>
	<polygon fill="#454545" points="60.639,59.504 56.826,66.001 31.761,31.032 41.021,31.032 	"/>
	<polygon fill="#454545" points="60.639,84.333 57.442,91.165 14.752,31.032 23.413,31.032 	"/>
	<polygon fill="#454545" points="49.688,94.31 41.625,94.31 14.752,56.457 14.752,44.288 	"/>
	<polygon fill="#454545" points="32.22,94.31 23.468,94.31 14.595,80.852 14.752,69.299 	"/>
	<polygon fill="#465C65" points="50.361,81.191 45.907,74.917 76.179,31.032 84.902,31.032 	"/>
	<polygon fill="#465C65" points="57.986,94.31 49.688,94.31 94.493,31.032 102.548,31.032 	"/>
	<polygon fill="#465C65" points="76.119,94.31 67.887,94.31 102.548,44.963 102.548,57.208 	"/>
	<polygon fill="#465C65" points="93.802,94.31 84.902,94.31 102.548,69.906 102.548,82.03 	"/>
</g>
<g>
	<polygon fill="#454545" points="107.477,81.066 107.735,73.913 157.473,38.613 157.473,46.973 	"/>
	<polygon fill="#454545" points="107.39,66.154 107.403,58.09 145.303,31.284 157.473,31.306 	"/>
	<polygon fill="#454545" points="107.419,48.685 107.435,39.934 120.91,31.084 132.461,31.261 	"/>
	<polygon fill="#465C65" points="125.201,61.559 130.716,57.659 157.473,76.563 157.473,84.559 	"/>
	<polygon fill="#465C65" points="107.342,67.525 107.357,59.292 156.642,94.042 144.397,94.02 	"/>
	<polygon fill="#465C65" points="107.477,85.485 107.477,76.252 131.7,93.999 119.575,93.976 	"/>
</g>
</svg>
