<?xml version="1.0" encoding="utf-8"?>
<!-- Generator: Adobe Illustrator 16.0.0, SVG Export Plug-In . SVG Version: 6.00 Build 0)  -->
<!DOCTYPE svg PUBLIC "-//W3C//DTD SVG 1.1//EN" "http://www.w3.org/Graphics/SVG/1.1/DTD/svg11.dtd">
<svg version="1.1" id="Layer_1" xmlns="http://www.w3.org/2000/svg" xmlns:xlink="http://www.w3.org/1999/xlink" x="0px" y="0px"
	 width="546px" height="125.667px" viewBox="0 0 546 125.667" enable-background="new 0 0 546 125.667" xml:space="preserve">
<g>
	<path fill="#444444" d="M196.515,39.552l15.651,27.051l15.591-27.051h5.7v48.251h-6.243V52.942l-15.048,26.056l-15.109-26.056
		v34.861h-6.243V39.552H196.515z"/>
	<path fill="#444444" d="M259.332,54.239c4.745,0,8.79,1.679,12.139,5.036c3.346,3.357,5.021,7.408,5.021,12.152
		c0,4.746-1.675,8.797-5.021,12.154c-3.348,3.357-7.395,5.037-12.139,5.037c-4.725,0-8.766-1.68-12.123-5.037
		c-3.358-3.357-5.036-7.408-5.036-12.154c0-4.744,1.679-8.795,5.036-12.152C250.567,55.918,254.608,54.239,259.332,54.239z
		 M251.718,63.828c-2.101,2.113-3.151,4.646-3.151,7.6c0,2.977,1.05,5.51,3.151,7.6c2.101,2.092,4.639,3.137,7.614,3.137
		s5.514-1.045,7.615-3.137c2.1-2.09,3.15-4.623,3.15-7.6c0-2.954-1.051-5.486-3.15-7.6c-2.101-2.11-4.64-3.166-7.615-3.166
		S253.818,61.718,251.718,63.828z"/>
	<path fill="#444444" d="M299.079,54.239c4.745,0,8.791,1.679,12.139,5.036c3.347,3.357,5.021,7.408,5.021,12.152
		c0,4.746-1.675,8.797-5.021,12.154c-3.348,3.357-7.394,5.037-12.139,5.037c-4.724,0-8.765-1.68-12.122-5.037
		c-3.358-3.357-5.037-7.408-5.037-12.154c0-4.744,1.679-8.795,5.037-12.152C290.314,55.918,294.355,54.239,299.079,54.239z
		 M291.465,63.828c-2.101,2.113-3.151,4.646-3.151,7.6c0,2.977,1.051,5.51,3.151,7.6c2.101,2.092,4.64,3.137,7.614,3.137
		c2.977,0,5.514-1.045,7.616-3.137c2.101-2.09,3.15-4.623,3.15-7.6c0-2.954-1.05-5.486-3.15-7.6c-2.103-2.11-4.64-3.166-7.616-3.166
		C296.104,60.662,293.565,61.718,291.465,63.828z"/>
	<path fill="#444444" d="M329.719,83.943v3.86h-6.242V39.552h6.242v19.361c3.016-3.116,6.524-4.674,10.525-4.674
		c4.744,0,8.791,1.679,12.137,5.036c3.348,3.357,5.022,7.408,5.022,12.152c0,4.746-1.675,8.797-5.022,12.154
		c-3.346,3.357-7.393,5.037-12.137,5.037C336.243,88.619,332.734,87.059,329.719,83.943z M329.719,69.015v4.854
		c0.382,1.892,1.348,3.61,2.896,5.157c2.112,2.092,4.654,3.137,7.63,3.137c2.975,0,5.514-1.045,7.614-3.137
		c2.101-2.09,3.152-4.623,3.152-7.6c0-2.954-1.052-5.486-3.152-7.6c-2.101-2.11-4.64-3.166-7.614-3.166
		c-2.976,0-5.519,1.056-7.63,3.166C331.066,65.376,330.101,67.105,329.719,69.015z"/>
	<path fill="#444444" d="M378.543,88.226c-3.92,0-7.076-1.196-9.469-3.589c-2.394-2.393-3.619-5.388-3.68-8.987V56.772h6.274v18.637
		c0,1.789,0.653,3.327,1.959,4.613c1.308,1.286,2.937,1.93,4.888,1.93c1.789,0,3.342-0.638,4.658-1.915
		c1.316-1.276,1.976-2.82,1.976-4.63V56.772h6.242V75.65c-0.061,3.599-1.277,6.594-3.649,8.987
		C385.349,87.03,382.283,88.226,378.543,88.226z"/>
	<path fill="#444444" d="M427.368,58.913V39.552h6.272v48.251h-6.272v-3.86c-3.017,3.116-6.525,4.675-10.525,4.675
		c-4.745,0-8.791-1.679-12.138-5.037c-3.348-3.357-5.022-7.409-5.022-12.153s1.675-8.795,5.022-12.153
		c3.347-3.357,7.393-5.036,12.138-5.036C420.843,54.239,424.353,55.797,427.368,58.913z M427.368,73.75v-4.613
		c-0.363-1.951-1.338-3.72-2.926-5.309c-2.092-2.11-4.625-3.166-7.6-3.166c-2.976,0-5.515,1.056-7.615,3.166
		c-2.102,2.113-3.151,4.646-3.151,7.6c0,2.977,1.05,5.51,3.151,7.6c2.101,2.092,4.639,3.137,7.615,3.137
		c2.975,0,5.508-1.045,7.6-3.137C426.03,77.439,427.006,75.681,427.368,73.75z"/>
	<path fill="#444444" d="M469.617,58.913V39.552h6.273v48.251h-6.273v-3.86c-3.017,3.116-6.524,4.675-10.524,4.675
		c-4.746,0-8.791-1.679-12.139-5.037c-3.347-3.357-5.021-7.409-5.021-12.153s1.675-8.795,5.021-12.153
		c3.348-3.357,7.393-5.036,12.139-5.036C463.093,54.239,466.602,55.797,469.617,58.913z M469.617,73.75v-4.613
		c-0.361-1.951-1.338-3.72-2.925-5.309c-2.092-2.11-4.625-3.166-7.6-3.166c-2.977,0-5.514,1.056-7.616,3.166
		c-2.102,2.113-3.15,4.646-3.15,7.6c0,2.977,1.049,5.51,3.15,7.6c2.103,2.092,4.64,3.137,7.616,3.137c2.975,0,5.508-1.045,7.6-3.137
		C468.279,77.439,469.256,75.681,469.617,73.75z"/>
	<path fill="#444444" d="M484.965,98.238h-6.603l15.863-17.34l-11.551-24.126h7.028l7.871,16.978l7.871-16.978h6.995L484.965,98.238
		z"/>
</g>
<path fill="none" stroke="#464646" stroke-width="3" stroke-miterlimit="10" d="M109.544,107.932c0,1.127-0.912,2.04-2.04,2.04
	H18.335c-1.126,0-2.04-0.913-2.04-2.04V18.764c0-1.126,0.913-2.04,2.04-2.04h24.438c0,0,75.096,75.82,19.981,75.463
	C8.276,91.833,83.195,16.725,83.195,16.725h24.309c1.129,0,2.041,0.914,2.041,2.04L109.544,107.932L109.544,107.932z"/>
<path fill="none" stroke="#475D67" stroke-width="3" stroke-miterlimit="10" d="M131.009,62.771
	c0.625-27.532,71.246,10.876,20.349,47.201c-21.231,15.152-33.629-21.144-33.629-47.225c0-26.082,9.066-55.998,33.629-47.226
	C198.63,32.404,130.333,92.727,131.009,62.771z"/>
</svg>
