<?xml version="1.0" encoding="utf-8"?>
<!-- Generator: Adobe Illustrator 16.0.0, SVG Export Plug-In . SVG Version: 6.00 Build 0)  -->
<!DOCTYPE svg PUBLIC "-//W3C//DTD SVG 1.1//EN" "http://www.w3.org/Graphics/SVG/1.1/DTD/svg11.dtd">
<svg version="1.1" id="Layer_1" xmlns="http://www.w3.org/2000/svg" xmlns:xlink="http://www.w3.org/1999/xlink" x="0px" y="0px"
	 width="546px" height="125.667px" viewBox="0 0 546 125.667" enable-background="new 0 0 546 125.667" xml:space="preserve">
<g enable-background="new    ">
	<path fill="#455A64" d="M117.232,91.601V47.462h7.927v6.125h0.36c1.261-2.102,3.198-3.888,5.811-5.359
		c2.612-1.471,5.209-2.207,7.792-2.207c6.846,0,11.5,2.823,13.962,8.468c3.603-5.646,8.738-8.468,15.404-8.468
		c5.224,0,9.157,1.666,11.8,4.999c2.642,3.333,3.963,7.853,3.963,13.558v27.023h-8.287V65.837c0-4.443-0.811-7.596-2.432-9.458
		c-1.622-1.861-4.085-2.793-7.387-2.793c-3.243,0-5.931,1.383-8.062,4.144c-2.132,2.764-3.198,5.916-3.198,9.458V91.6h-8.288V65.837
		c0-4.443-0.811-7.596-2.432-9.458c-1.621-1.861-4.084-2.793-7.386-2.793c-3.243,0-5.931,1.383-8.062,4.144
		c-2.133,2.764-3.198,5.916-3.198,9.458V91.6L117.232,91.601L117.232,91.601z"/>
	<path fill="#455A64" d="M197.853,52.731c4.263-4.473,9.697-6.711,16.304-6.711c6.605,0,12.04,2.238,16.304,6.711
		c4.264,4.475,6.396,10.075,6.396,16.799c0,6.728-2.132,12.328-6.396,16.802c-4.265,4.477-9.699,6.711-16.304,6.711
		c-6.607,0-12.041-2.234-16.304-6.711c-4.265-4.474-6.396-10.074-6.396-16.802C191.457,62.807,193.587,57.206,197.853,52.731z
		 M204.022,81.107c2.852,2.912,6.229,4.369,10.134,4.369c3.903,0,7.281-1.457,10.134-4.369c2.852-2.912,4.279-6.771,4.279-11.576
		c0-4.803-1.427-8.662-4.279-11.575c-2.853-2.912-6.231-4.369-10.134-4.369c-3.904,0-7.282,1.457-10.134,4.369
		c-2.853,2.913-4.279,6.772-4.279,11.575C199.743,74.335,201.169,78.195,204.022,81.107z"/>
	<path fill="#455A64" d="M248.296,52.731c4.263-4.473,9.697-6.711,16.304-6.711c6.605,0,12.041,2.238,16.304,6.711
		c4.264,4.475,6.396,10.075,6.396,16.799c0,6.728-2.133,12.328-6.396,16.802c-4.266,4.477-9.699,6.711-16.304,6.711
		c-6.607,0-12.041-2.234-16.304-6.711c-4.265-4.474-6.396-10.074-6.396-16.802C241.9,62.807,244.031,57.206,248.296,52.731z
		 M254.466,81.107c2.852,2.912,6.229,4.369,10.134,4.369c3.903,0,7.281-1.457,10.134-4.369c2.852-2.912,4.279-6.771,4.279-11.576
		c0-4.803-1.43-8.662-4.279-11.575c-2.854-2.912-6.231-4.369-10.134-4.369c-3.904,0-7.282,1.457-10.134,4.369
		c-2.853,2.913-4.279,6.772-4.279,11.575C250.188,74.335,251.613,78.195,254.466,81.107z"/>
	<path fill="#455A64" d="M317.749,93.042c-3.365,0-6.382-0.724-9.054-2.162c-2.672-1.441-4.67-3.244-5.989-5.404h-0.36v6.125h-7.928
		V27.104h8.288v20.358l-0.36,6.125h0.36c1.319-2.162,3.317-3.963,5.989-5.404s5.688-2.162,9.054-2.162
		c5.705,0,10.629,2.252,14.771,6.756c4.146,4.504,6.218,10.089,6.218,16.754c0,6.666-2.071,12.252-6.218,16.756
		C328.378,90.791,323.452,93.042,317.749,93.042z M316.396,85.476c3.843,0,7.146-1.457,9.907-4.369
		c2.763-2.912,4.146-6.771,4.146-11.576c0-4.803-1.382-8.662-4.146-11.575c-2.762-2.912-6.063-4.369-9.907-4.369
		c-3.903,0-7.224,1.441-9.953,4.324c-2.733,2.883-4.101,6.756-4.101,11.62c0,4.865,1.365,8.738,4.101,11.621
		C309.175,84.035,312.492,85.476,316.396,85.476z"/>
	<path fill="#455A64" d="M384.587,91.601h-7.927v-6.125h-0.36c-1.262,2.102-3.185,3.889-5.766,5.359
		c-2.583,1.471-5.313,2.207-8.197,2.207c-5.523,0-9.715-1.685-12.564-5.045c-2.854-3.363-4.277-7.867-4.277-13.515V47.462h8.287
		v25.672c0,8.229,3.633,12.342,10.897,12.342c3.425,0,6.218-1.381,8.379-4.145c2.162-2.765,3.241-5.945,3.241-9.549V47.462h8.287
		V91.601z"/>
	<path fill="#455A64" d="M412.691,93.042c-5.707,0-10.632-2.252-14.772-6.756c-4.144-4.504-6.216-10.093-6.216-16.759
		s2.07-12.25,6.216-16.754c4.145-4.504,9.065-6.756,14.772-6.756c3.36,0,6.379,0.721,9.053,2.162
		c2.673,1.441,4.669,3.242,5.99,5.404h0.358l-0.358-6.125V27.104h8.287v64.498h-7.929v-6.125h-0.358
		c-1.321,2.16-3.317,3.963-5.99,5.403C419.07,92.322,416.055,93.042,412.691,93.042z M414.044,85.476
		c3.901,0,7.22-1.441,9.953-4.324c2.73-2.883,4.099-6.756,4.099-11.621c0-4.863-1.364-8.737-4.099-11.62
		c-2.733-2.883-6.052-4.324-9.953-4.324c-3.846,0-7.146,1.457-9.91,4.369c-2.762,2.913-4.144,6.772-4.144,11.575
		c0,4.805,1.382,8.664,4.144,11.576C406.896,84.019,410.198,85.476,414.044,85.476z"/>
	<path fill="#455A64" d="M464.128,93.042c-5.707,0-10.631-2.252-14.772-6.756c-4.143-4.504-6.215-10.093-6.215-16.759
		s2.069-12.25,6.215-16.754s9.065-6.756,14.772-6.756c3.361,0,6.379,0.721,9.053,2.162c2.672,1.441,4.669,3.242,5.99,5.404h0.359
		l-0.359-6.125V27.104h8.287v64.498h-7.928v-6.125h-0.359c-1.321,2.16-3.318,3.963-5.99,5.403
		C470.507,92.322,467.489,93.042,464.128,93.042z M465.479,85.476c3.9,0,7.221-1.441,9.952-4.324s4.101-6.756,4.101-11.621
		c0-4.863-1.365-8.737-4.101-11.62c-2.731-2.883-6.052-4.324-9.952-4.324c-3.846,0-7.146,1.457-9.908,4.369
		c-2.765,2.913-4.146,6.772-4.146,11.575c0,4.805,1.382,8.664,4.146,11.576C458.331,84.019,461.634,85.476,465.479,85.476z"/>
	<path fill="#455A64" d="M509.346,111.058h-8.559l10.271-22.25l-18.194-41.346h9.008l13.15,31.708h0.182l12.791-31.708H537
		L509.346,111.058z"/>
</g>
<polygon fill="#455A64" points="41.25,66.833 10.75,66.833 10.75,36.333 "/>
<polygon fill="#455A64" points="55.25,66.833 24.75,66.833 55.25,36.333 "/>
<polygon fill="#455A64" points="10.75,96.781 10.75,66.281 41.25,66.281 "/>
<polygon fill="#455A64" points="55.25,96.781 24.75,66.281 55.25,66.281 "/>
<circle fill="#455A64" cx="78.75" cy="81.532" r="15.167"/>
<polygon fill="#455A64" points="89.709,71.053 63.5,96.833 63.5,36.333 "/>
</svg>
