<?xml version="1.0" encoding="utf-8"?>
<!-- Generator: Adobe Illustrator 16.0.0, SVG Export Plug-In . SVG Version: 6.00 Build 0)  -->
<!DOCTYPE svg PUBLIC "-//W3C//DTD SVG 1.1//EN" "http://www.w3.org/Graphics/SVG/1.1/DTD/svg11.dtd">
<svg version="1.1" id="Layer_1" xmlns="http://www.w3.org/2000/svg" xmlns:xlink="http://www.w3.org/1999/xlink" x="0px" y="0px"
	 width="546px" height="125.667px" viewBox="0 0 546 125.667" enable-background="new 0 0 546 125.667" xml:space="preserve">
<g>
	<path fill="#444444" d="M196.515,39.552l15.651,27.051l15.591-27.051h5.7v48.25h-6.243v-34.86l-15.048,26.056l-15.109-26.056
		v34.861h-6.243V39.552H196.515z"/>
	<path fill="#444444" d="M259.332,54.239c4.745,0,8.79,1.679,12.139,5.036c3.345,3.357,5.021,7.408,5.021,12.152
		c0,4.746-1.676,8.797-5.021,12.154c-3.348,3.356-7.395,5.037-12.139,5.037c-4.725,0-8.766-1.681-12.123-5.037
		c-3.358-3.357-5.036-7.408-5.036-12.154c0-4.744,1.679-8.795,5.036-12.152C250.567,55.918,254.608,54.239,259.332,54.239z
		 M251.718,63.828c-2.101,2.113-3.151,4.646-3.151,7.601c0,2.977,1.05,5.51,3.151,7.6c2.101,2.093,4.639,3.138,7.614,3.138
		s5.514-1.045,7.615-3.138c2.1-2.09,3.15-4.623,3.15-7.6c0-2.954-1.051-5.486-3.15-7.601c-2.101-2.11-4.64-3.166-7.615-3.166
		S253.818,61.718,251.718,63.828z"/>
	<path fill="#444444" d="M299.079,54.239c4.745,0,8.791,1.679,12.139,5.036s5.021,7.408,5.021,12.152
		c0,4.746-1.675,8.797-5.021,12.154c-3.348,3.356-7.394,5.037-12.139,5.037c-4.724,0-8.765-1.681-12.122-5.037
		c-3.357-3.357-5.037-7.408-5.037-12.154c0-4.744,1.68-8.795,5.037-12.152S294.355,54.239,299.079,54.239z M291.465,63.828
		c-2.102,2.113-3.15,4.646-3.15,7.601c0,2.977,1.051,5.51,3.15,7.6c2.102,2.093,4.641,3.138,7.614,3.138
		c2.977,0,5.514-1.045,7.616-3.138c2.101-2.09,3.149-4.623,3.149-7.6c0-2.954-1.05-5.486-3.149-7.601
		c-2.104-2.11-4.641-3.166-7.616-3.166S293.564,61.718,291.465,63.828z"/>
	<path fill="#2596F1" d="M329.719,83.943v3.86h-6.242V39.552h6.242v19.361c3.017-3.116,6.524-4.674,10.525-4.674
		c4.744,0,8.791,1.679,12.137,5.036c3.348,3.357,5.022,7.408,5.022,12.152c0,4.746-1.676,8.797-5.022,12.154
		c-3.346,3.356-7.393,5.037-12.137,5.037C336.243,88.619,332.734,87.059,329.719,83.943z M329.719,69.015v4.854
		c0.382,1.893,1.349,3.61,2.896,5.157c2.111,2.093,4.653,3.138,7.63,3.138c2.975,0,5.514-1.045,7.614-3.138
		c2.101-2.09,3.151-4.623,3.151-7.601c0-2.953-1.052-5.485-3.151-7.6c-2.102-2.11-4.641-3.166-7.614-3.166
		c-2.977,0-5.52,1.056-7.63,3.166C331.066,65.376,330.101,67.105,329.719,69.015z"/>
	<path fill="#2596F1" d="M378.543,88.226c-3.92,0-7.076-1.196-9.469-3.589c-2.395-2.394-3.619-5.388-3.681-8.987V56.772h6.274V75.41
		c0,1.789,0.653,3.326,1.959,4.612c1.308,1.286,2.938,1.931,4.888,1.931c1.789,0,3.343-0.639,4.658-1.916
		c1.316-1.275,1.977-2.82,1.977-4.629V56.772h6.241V75.65c-0.061,3.6-1.276,6.594-3.648,8.987
		C385.349,87.03,382.283,88.226,378.543,88.226z"/>
	<path fill="#2596F1" d="M427.368,58.913V39.552h6.271v48.25h-6.271v-3.859c-3.018,3.116-6.525,4.676-10.525,4.676
		c-4.745,0-8.791-1.68-12.138-5.037c-3.348-3.357-5.022-7.41-5.022-12.154c0-4.743,1.676-8.794,5.022-12.152
		c3.347-3.357,7.393-5.036,12.138-5.036C420.843,54.239,424.353,55.797,427.368,58.913z M427.368,73.75v-4.612
		c-0.363-1.951-1.338-3.72-2.926-5.31c-2.093-2.11-4.625-3.166-7.601-3.166s-5.515,1.056-7.615,3.166
		c-2.102,2.113-3.15,4.646-3.15,7.601c0,2.977,1.05,5.51,3.15,7.6c2.102,2.093,4.64,3.138,7.615,3.138s5.508-1.045,7.601-3.138
		C426.03,77.439,427.006,75.681,427.368,73.75z"/>
	<path fill="#2596F1" d="M469.617,58.913V39.552h6.272v48.25h-6.272v-3.859c-3.018,3.116-6.524,4.676-10.524,4.676
		c-4.746,0-8.791-1.68-12.139-5.037c-3.347-3.357-5.021-7.41-5.021-12.154c0-4.743,1.676-8.794,5.021-12.152
		c3.348-3.357,7.393-5.036,12.139-5.036C463.093,54.239,466.602,55.797,469.617,58.913z M469.617,73.75v-4.612
		c-0.361-1.951-1.338-3.72-2.925-5.31c-2.093-2.11-4.625-3.166-7.601-3.166c-2.977,0-5.514,1.056-7.616,3.166
		c-2.102,2.113-3.149,4.646-3.149,7.601c0,2.977,1.049,5.51,3.149,7.6c2.104,2.093,4.641,3.138,7.616,3.138s5.508-1.045,7.601-3.138
		C468.279,77.439,469.256,75.681,469.617,73.75z"/>
	<path fill="#2596F1" d="M484.965,98.238h-6.603L492.6,77.505l-9.926-20.733h7.028l6.795,14.657l8.947-14.657h6.995L484.965,98.238z
		"/>
</g>
<polygon fill="#454545" points="39.5,98.166 7.667,98.166 31.5,28.667 51.405,58.667 46.834,64.5 33.167,45.833 17.334,91.166 
	39.5,91.166 "/>
<polygon fill="#454545" points="68.5,98.166 101.07,98.167 77.237,28.666 36,91.333 39.5,98.166 75.5,45 91.402,91.167 73,91.167 
	61.5,74 57.333,81 "/>
<g>
	<polygon fill="#2596F1" points="111.777,98.025 102.291,98.167 134.329,29.6 143.9,29.6 	"/>
	<polygon fill="#2596F1" points="147.473,98.023 106.833,98.117 110.225,89.515 146.398,89.396 	"/>
	<g>
		<path fill="#2596F1" d="M147.473,59.468c-2.185,0-9.957,0-9.957,0l-3.57,8.032H146.4c6.047,0,10.947,4.902,10.947,10.949
			c0,6.043-4.9,10.947-10.947,10.947v0.084h-14.938c3.459,5.152,9.339,8.543,16.011,8.543c10.646,0,19.277-8.631,19.277-19.277
			C166.749,68.099,158.118,59.468,147.473,59.468z"/>
	</g>
	<g>
		<path fill="#2596F1" d="M149.557,31.907l-3.803,8.242c3.23,1.656,5.446,5.013,5.446,8.894c0,5.521-4.476,9.996-9.995,9.996v0.073
			h-3.553c0,0,7.774,8.653,9.707,7.995c7.518-2.561,12.924-9.681,12.924-18.064C160.283,41.504,155.9,35.007,149.557,31.907z"/>
	</g>
</g>
</svg>
