<?xml version="1.0" encoding="utf-8"?>
<!-- Generator: Adobe Illustrator 16.0.0, SVG Export Plug-In . SVG Version: 6.00 Build 0)  -->
<!DOCTYPE svg PUBLIC "-//W3C//DTD SVG 1.1//EN" "http://www.w3.org/Graphics/SVG/1.1/DTD/svg11.dtd">
<svg version="1.1" id="Layer_1" xmlns="http://www.w3.org/2000/svg" xmlns:xlink="http://www.w3.org/1999/xlink" x="0px" y="0px"
	 width="100px" height="100px" viewBox="0 0 100 100" enable-background="new 0 0 100 100" xml:space="preserve">
<path fill="#374C56" d="M71.334,72.5c-1.834,2.75,3.978,14.538,2.5,16.167c-1.666,1.836-18.234-10.698-35-19.335
	C22.027,60.674,8.25,52.834,8.667,50.5c0.384-2.153,13.4-2.198,14.5-4.333c9.759-18.943,23.134-38.515,46.122-24.707
	C91,34.5,83.223,54.674,71.334,72.5z"/>
<path fill="#374C56" d="M65.46,87.052c-3.043,4.945-12.237,8.396-19.479,4.37c-7.238-4.025-9.344-14.084-6.481-19.508L65.46,87.052z
	"/>
<circle fill="#374C56" cx="68.438" cy="22.563" r="7.313"/>
</svg>
