<?xml version="1.0" encoding="utf-8"?>
<!-- Generator: Adobe Illustrator 16.0.0, SVG Export Plug-In . SVG Version: 6.00 Build 0)  -->
<!DOCTYPE svg PUBLIC "-//W3C//DTD SVG 1.1//EN" "http://www.w3.org/Graphics/SVG/1.1/DTD/svg11.dtd">
<svg version="1.1" id="Layer_1" xmlns="http://www.w3.org/2000/svg" xmlns:xlink="http://www.w3.org/1999/xlink" x="0px" y="0px"
	 width="100px" height="100px" viewBox="0 0 100 100" enable-background="new 0 0 100 100" xml:space="preserve">
<path fill="#364C56" d="M91.325,6.92c4.067,4.061,4.067,10.643,0,14.7L24.121,88.825c-4.058,4.067-10.64,4.067-14.7,0l0,0
	c-4.06-4.063-4.06-10.633,0-14.707L76.618,6.92C80.692,2.86,87.263,2.861,91.325,6.92L91.325,6.92z"/>
<path fill="#364C56" d="M9.42,6.92c4.061-4.06,10.643-4.06,14.7,0l67.205,67.198c4.067,4.074,4.067,10.644,0,14.707l0,0
	c-4.063,4.067-10.633,4.067-14.707,0L9.42,21.621C5.36,17.563,5.361,10.98,9.42,6.92L9.42,6.92z"/>
</svg>
