<?xml version="1.0" encoding="utf-8"?>
<!-- Generator: Adobe Illustrator 16.0.0, SVG Export Plug-In . SVG Version: 6.00 Build 0)  -->
<!DOCTYPE svg PUBLIC "-//W3C//DTD SVG 1.1//EN" "http://www.w3.org/Graphics/SVG/1.1/DTD/svg11.dtd">
<svg version="1.1" id="Layer_1" xmlns="http://www.w3.org/2000/svg" xmlns:xlink="http://www.w3.org/1999/xlink" x="0px" y="0px"
	 width="100px" height="100px" viewBox="0 0 100 100" enable-background="new 0 0 100 100" xml:space="preserve">
<path fill="none" stroke="#464646" stroke-width="3" stroke-miterlimit="10" d="M60.296,76.388c0,0.664-0.538,1.203-1.204,1.203
	H6.499c-0.665,0-1.203-0.539-1.203-1.203V23.794c0-0.665,0.539-1.203,1.203-1.203h14.414c0,0,44.293,44.72,11.785,44.509
	C0.566,66.892,44.754,22.591,44.754,22.591h14.337c0.666,0,1.205,0.539,1.205,1.203L60.296,76.388L60.296,76.388z"/>
<path fill="none" stroke="#475D67" stroke-width="3" stroke-miterlimit="10" d="M72.956,49.75
	c0.369-16.238,42.022,6.415,12.003,27.841C72.436,86.528,65.124,65.12,65.124,49.736c0-15.383,5.348-33.028,19.835-27.854
	C112.84,31.839,72.558,67.42,72.956,49.75z"/>
</svg>
