<?xml version="1.0" encoding="utf-8"?>
<!-- Generator: Adobe Illustrator 16.0.0, SVG Export Plug-In . SVG Version: 6.00 Build 0)  -->
<!DOCTYPE svg PUBLIC "-//W3C//DTD SVG 1.1//EN" "http://www.w3.org/Graphics/SVG/1.1/DTD/svg11.dtd">
<svg version="1.1" id="Layer_1" xmlns="http://www.w3.org/2000/svg" xmlns:xlink="http://www.w3.org/1999/xlink" x="0px" y="0px"
	 width="100px" height="100px" viewBox="0 0 100 100" enable-background="new 0 0 100 100" xml:space="preserve">
<g>
	<polygon fill="#454545" points="32.903,45.523 30.427,49.742 14.148,27.032 20.162,27.032 	"/>
	<polygon fill="#454545" points="32.903,61.647 30.827,66.084 3.102,27.032 8.727,27.032 	"/>
	<polygon fill="#454545" points="25.792,68.128 20.554,68.128 3.102,43.544 3.102,35.641 	"/>
	<polygon fill="#454545" points="14.446,68.128 8.762,68.128 3,59.388 3.102,51.883 	"/>
	<polygon fill="#465C65" points="26.229,59.608 23.335,55.534 42.996,27.032 48.66,27.032 	"/>
	<polygon fill="#465C65" points="31.18,68.128 25.792,68.128 54.89,27.032 60.121,27.032 	"/>
	<polygon fill="#465C65" points="42.957,68.128 37.61,68.128 60.121,36.08 60.121,44.032 	"/>
	<polygon fill="#465C65" points="54.44,68.128 48.66,68.128 60.121,52.279 60.121,60.153 	"/>
</g>
<g>
	<polygon fill="#454545" points="63.322,59.527 63.489,54.881 95.791,31.956 95.791,37.385 	"/>
	<polygon fill="#454545" points="63.265,49.842 63.272,44.605 87.888,27.195 95.791,27.21 	"/>
	<polygon fill="#454545" points="63.285,38.496 63.295,32.813 72.046,27.066 79.549,27.181 	"/>
	<polygon fill="#465C65" points="74.833,46.857 78.414,44.325 95.791,56.603 95.791,61.795 	"/>
	<polygon fill="#465C65" points="63.233,50.732 63.246,45.386 95.252,67.954 87.299,67.939 	"/>
	<polygon fill="#465C65" points="63.322,62.396 63.322,56.399 79.055,67.926 71.178,67.912 	"/>
</g>
</svg>
