<?xml version="1.0" encoding="utf-8"?>
<!-- Generator: Adobe Illustrator 16.0.0, SVG Export Plug-In . SVG Version: 6.00 Build 0)  -->
<!DOCTYPE svg PUBLIC "-//W3C//DTD SVG 1.1//EN" "http://www.w3.org/Graphics/SVG/1.1/DTD/svg11.dtd">
<svg version="1.1" id="Layer_1" xmlns="http://www.w3.org/2000/svg" xmlns:xlink="http://www.w3.org/1999/xlink" x="0px" y="0px"
	 width="100px" height="100px" viewBox="0 0 100 100" enable-background="new 0 0 100 100" xml:space="preserve">
<polygon fill="#454545" points="21.667,68.149 2.667,68.149 16.893,26.667 28.773,44.573 26.044,48.055 17.887,36.913 8.437,63.971 
	21.667,63.971 "/>
<polygon fill="#454545" points="38.977,68.149 58.417,68.15 44.192,26.666 19.579,64.07 21.667,68.149 43.155,36.416 52.646,63.972 
	41.663,63.972 34.799,53.725 32.312,57.902 "/>
<g>
	<polygon fill="#465C66" points="64.808,68.064 59.146,68.15 78.269,27.224 83.981,27.224 	"/>
	<polygon fill="#465C66" points="86.114,68.063 61.856,68.119 63.882,62.985 85.473,62.914 	"/>
	<g>
		<path fill="#465C66" d="M86.114,45.051c-1.304,0-5.943,0-5.943,0l-2.132,4.795h7.435c3.609,0,6.534,2.925,6.534,6.534
			c0,3.606-2.925,6.534-6.534,6.534v0.051h-8.917c2.064,3.074,5.575,5.099,9.558,5.099c6.354,0,11.505-5.151,11.505-11.507
			C97.618,50.203,92.468,45.051,86.114,45.051z"/>
	</g>
	<g>
		<path fill="#465C66" d="M87.357,28.601l-2.27,4.919c1.928,0.989,3.251,2.992,3.251,5.309c0,3.296-2.672,5.967-5.967,5.967v0.043
			h-2.12c0,0,4.641,5.166,5.795,4.773c4.486-1.529,7.714-5.779,7.714-10.783C93.761,34.329,91.145,30.451,87.357,28.601z"/>
	</g>
</g>
</svg>
