<?xml version="1.0" encoding="utf-8"?>
<!-- Generator: Adobe Illustrator 16.0.0, SVG Export Plug-In . SVG Version: 6.00 Build 0)  -->
<!DOCTYPE svg PUBLIC "-//W3C//DTD SVG 1.1//EN" "http://www.w3.org/Graphics/SVG/1.1/DTD/svg11.dtd">
<svg version="1.1" id="Layer_1" xmlns="http://www.w3.org/2000/svg" xmlns:xlink="http://www.w3.org/1999/xlink" x="0px" y="0px"
	 width="100px" height="100px" viewBox="0 0 100 100" enable-background="new 0 0 100 100" xml:space="preserve">
<polygon fill="#454545" points="25.826,79.053 4,79.053 20.341,31.401 33.988,51.972 30.854,55.97 21.484,43.171 10.628,74.253 
	25.826,74.253 "/>
<polygon fill="#454545" points="45.709,79.053 68.041,79.054 51.699,31.4 23.426,74.368 25.826,79.053 50.509,42.6 61.412,74.254 
	48.794,74.254 40.91,62.483 38.053,67.283 "/>
<g>
	<polygon fill="#465C66" points="75.835,73.336 71.225,77.926 54.334,28.861 59.052,24.3 	"/>
	<polygon fill="#465C66" points="93.425,56.32 73.439,75.736 71.012,69.882 88.784,52.58 	"/>
	<g>
		<path fill="#465C66" d="M75.048,37.318c-1.076,1.042-4.907,4.745-4.907,4.745l2.069,5.661l6.139-5.936
			c2.979-2.883,7.732-2.802,10.612,0.178c2.882,2.978,2.804,7.731-0.177,10.614l0.041,0.043l-7.363,7.119
			c4.16,0.891,8.675-0.241,11.963-3.422c5.247-5.073,5.387-13.441,0.313-18.689C88.662,32.384,80.296,32.244,75.048,37.318z"/>
	</g>
	<g>
		<path fill="#465C66" d="M62.938,22.741l2.055,5.874c2.382-0.725,5.073-0.126,6.925,1.787c2.631,2.722,2.558,7.059-0.162,9.691
			l0.034,0.037l-1.75,1.692c0,0,7.955,0.56,8.595-0.686c2.485-4.845,1.755-10.932-2.242-15.063
			C72.8,22.357,67.542,21.245,62.938,22.741z"/>
	</g>
</g>
</svg>
