<?xml version="1.0" encoding="utf-8"?>
<!-- Generator: Adobe Illustrator 16.0.0, SVG Export Plug-In . SVG Version: 6.00 Build 0)  -->
<!DOCTYPE svg PUBLIC "-//W3C//DTD SVG 1.1//EN" "http://www.w3.org/Graphics/SVG/1.1/DTD/svg11.dtd">
<svg version="1.1" id="Layer_1" xmlns="http://www.w3.org/2000/svg" xmlns:xlink="http://www.w3.org/1999/xlink" x="0px" y="0px"
	 width="100px" height="100px" viewBox="0 0 100 100" enable-background="new 0 0 100 100" xml:space="preserve">
<path fill="#455B65" d="M95,25.277c0,2.194-2.421,3.973-5.408,3.973H10.908c-2.986,0-5.408-1.779-5.408-3.973v-3.973
	c0-2.194,2.421-3.973,5.408-3.973h78.684c2.987,0,5.408,1.779,5.408,3.973V25.277z"/>
<path fill="#455B65" d="M95,50.277c0,2.193-2.421,3.973-5.408,3.973H10.908c-2.986,0-5.408-1.779-5.408-3.973v-3.973
	c0-2.195,2.421-3.974,5.408-3.974h78.684c2.987,0,5.408,1.779,5.408,3.974V50.277z"/>
<path fill="#455B65" d="M95,75.277c0,2.193-2.421,3.973-5.408,3.973H10.908c-2.986,0-5.408-1.779-5.408-3.973v-3.973
	c0-2.195,2.421-3.974,5.408-3.974h78.684c2.987,0,5.408,1.778,5.408,3.974V75.277z"/>
</svg>
