<?xml version="1.0" encoding="utf-8"?>
<!-- Generator: Adobe Illustrator 16.0.0, SVG Export Plug-In . SVG Version: 6.00 Build 0)  -->
<!DOCTYPE svg PUBLIC "-//W3C//DTD SVG 1.1//EN" "http://www.w3.org/Graphics/SVG/1.1/DTD/svg11.dtd">
<svg version="1.1" id="Layer_1" xmlns="http://www.w3.org/2000/svg" xmlns:xlink="http://www.w3.org/1999/xlink" x="0px" y="0px"
	 width="100px" height="100px" viewBox="0 0 100 100" enable-background="new 0 0 100 100" xml:space="preserve">
<path fill="#374C56" d="M88.503,33.637c-1.946,10.878-4.583,19.076-7.092,28.883c-5.197,20.308-10.684,27.397-28.296,27.397
	c-17.845,0-26.466-6.609-34.743-26.82c-2.683-6.553-7.731-14.917-7.731-19.375c0-7.649,8.444-8.521,11.773-2.375
	c4.735,8.743,10.115,20.167,10.972,20.115c3.589-0.224-4.771-38.922-3.075-42.22c1.054-2.052,3.556-3.591,5.577-3.495
	c1.358,0.064,2.599,1.347,3.657,4.909c0.888,2.982,3.561,27.332,5.486,27.429c1.464,0.072,1.731-32.91,1.731-32.91
	c-0.022-2.769,3.52-4.411,5.865-4.409c1.922,0.001,4.586,1.478,5.481,3.752c0,0-0.551,33.208,1.038,33.311
	c0.994,0.064,5.133-29.483,5.133-29.483c1.108-2.027,2.959-3.49,4.813-3.272c1.207,0.142,3.816,1.839,4.331,3.465
	c0,0-2.833,30.604-2.695,31.803c0.339,2.931,4.647-11.061,7.796-17.463C81.411,27.007,89.299,29.181,88.503,33.637z"/>
</svg>
