<?xml version="1.0" encoding="utf-8"?>
<!-- Generator: Adobe Illustrator 16.0.0, SVG Export Plug-In . SVG Version: 6.00 Build 0)  -->
<!DOCTYPE svg PUBLIC "-//W3C//DTD SVG 1.1//EN" "http://www.w3.org/Graphics/SVG/1.1/DTD/svg11.dtd">
<svg version="1.1" id="Layer_1" xmlns="http://www.w3.org/2000/svg" xmlns:xlink="http://www.w3.org/1999/xlink" x="0px" y="0px"
	 width="100px" height="100px" viewBox="0 0 100 100" enable-background="new 0 0 100 100" xml:space="preserve">
<path fill="#5B7F8C" d="M90.333,32.292c0,6.628-5.373,12-12,12H20.224c-6.627,0-12-5.372-12-12v-1.833c0-6.627,5.373-12,12-12
	h58.109c6.627,0,12,5.373,12,12V32.292z"/>
<path fill="#364C56" d="M92.006,31.541c0,10.491-8.503,19.001-18.999,19.001c-10.497,0-19-8.51-19-19.001
	c0-10.495,8.503-18.999,19-18.999C83.503,12.542,92.006,21.046,92.006,31.541z"/>
<path fill="#777777" d="M91.333,70.292c0,6.628-5.373,12-12,12H21.224c-6.627,0-12-5.372-12-12v-1.833c0-6.627,5.373-12,12-12
	h58.109c6.627,0,12,5.373,12,12V70.292z"/>
<path fill="#AAAAAA" d="M46.006,69.541c0,10.49-8.503,19.001-18.999,19.001c-10.497,0-19-8.511-19-19.001
	c0-10.494,8.503-18.999,19-18.999C37.503,50.542,46.006,59.047,46.006,69.541z"/>
</svg>
