<?xml version="1.0" encoding="utf-8"?>
<!-- Generator: Adobe Illustrator 16.0.0, SVG Export Plug-In . SVG Version: 6.00 Build 0)  -->
<!DOCTYPE svg PUBLIC "-//W3C//DTD SVG 1.1//EN" "http://www.w3.org/Graphics/SVG/1.1/DTD/svg11.dtd">
<svg version="1.1" id="Layer_1" xmlns="http://www.w3.org/2000/svg" xmlns:xlink="http://www.w3.org/1999/xlink" x="0px" y="0px"
	 width="200px" height="200px" viewBox="0 0 200 200" enable-background="new 0 0 200 200" xml:space="preserve">
<path fill="#454545" d="M101.5,24C59.253,24,25,58.253,25,100.5c0,42.245,34.253,76.5,76.5,76.5c42.245,0,76.5-34.255,76.5-76.5
	C178,58.253,143.745,24,101.5,24z M101.5,170.881c-38.87,0-70.381-31.511-70.381-70.381S62.63,30.119,101.5,30.119
	s70.381,31.511,70.381,70.381S140.37,170.881,101.5,170.881z"/>
<path fill="#454545" d="M121.5,138c0,0-1.274-15.08,0.5-17.5c5.5-7.5,9.185-17.767,9.249-26.5c0.133-17.995,3.422-48.5-28.749-48.5
	c-32.17,0-29.946,30.997-29.71,48.497c0.118,8.732,3.439,17.693,9.21,27.503c1.598,2.717,0.224,20,0.224,20
	s-29.824,6.104-29.461,9.773C54.589,169.759,83.514,175,101.5,175c17.38,0,48.054-7,49.764-24.73
	C151.677,145.986,121.5,138,121.5,138z M101.547,173.751c-16.248,0-42.38-2.733-44.03-19.43c-0.331-3.32,29.614-8.839,29.614-8.839
	s1.246-22.612-0.199-25.068c-5.214-8.864-8.214-16.961-8.322-24.849c-0.215-15.812-5.221-44.817,23.844-44.817
	c29.072,0,23.097,28.562,22.974,44.821c-0.056,7.889-3.388,17.161-8.358,23.941c-1.598,2.184-0.448,23.817-0.448,23.817
	s30.266,6.215,29.89,10.079C144.967,169.43,117.255,173.751,101.547,173.751z"/>
</svg>
